# xmcd
#
# Track frame offsets:
#	183
#	15578
#	45460
#	65128
#	94843
#
# Disc length: 1568 seconds
#
# Revision: 1
# Processed by: cddbd v1.5.1PL0 Copyright (c) Steve Scherf et al.
# Submitted via: EasyCDDAExtractor 8.2.0.1
#
DISCID=3a061e05
DTITLE=Anticappella - Everyday EP
DYEAR=1900
DGENRE=House
TTITLE0=Everyday (7" Edit)
TTITLE1=Everyday (Extended mix)
TTITLE2=Everyday (Extravagance mix)
TTITLE3=Everyday (Plus staples mix)
TTITLE4=Everyday (Knife blades mix)
EXTD=
EXTT0=
EXTT1=
EXTT2=
EXTT3=
EXTT4=
PLAYORDER=
